<svg width="24" height="24" viewBox="0 0 24 24" fill="none" xmlns="http://www.w3.org/2000/svg">
<path d="M23 14.7994C21.087 15.3358 19.0657 15.3534 17.1436 14.8503C15.2216 14.3473 13.4681 13.3416 12.0632 11.9368C10.6584 10.5319 9.65274 8.7784 9.14966 6.85636C8.64657 4.93431 8.66415 2.913 9.20059 1C7.31454 1.52495 5.59895 2.53489 4.22469 3.92922C2.85043 5.32355 1.86547 7.0536 1.36792 8.94705C0.870363 10.8405 0.877578 12.8313 1.38885 14.7211C1.90011 16.6109 2.89759 18.3338 4.28192 19.7181C5.66625 21.1024 7.38912 22.0999 9.27892 22.6112C11.1687 23.1224 13.1595 23.1296 15.0529 22.6321C16.9464 22.1345 18.6765 21.1496 20.0708 19.7753C21.4651 18.401 22.475 16.6855 23 14.7994V14.7994Z" stroke="#3A0CA3" stroke-width="2" stroke-linecap="round" stroke-linejoin="round"/>
</svg>
